<mxfile host="app.diagrams.net" modified="2022-03-09T22:23:47.473Z" agent="5.0 (Windows)" etag="CDlzDENC7d-rf05DztKI" version="17.0.0" type="github">
  <diagram id="tWYl1M9mB_EIU04ViIMJ" name="Page-1">
    <mxGraphModel dx="2090" dy="643" grid="1" gridSize="10" guides="1" tooltips="1" connect="1" arrows="1" fold="1" page="1" pageScale="1" pageWidth="850" pageHeight="1100" math="0" shadow="0">
      <root>
        <mxCell id="0" />
        <mxCell id="1" parent="0" />
        <mxCell id="4vSwxPefx8NxM63G5225-21" style="edgeStyle=orthogonalEdgeStyle;rounded=0;orthogonalLoop=1;jettySize=auto;html=1;exitX=0.5;exitY=0;exitDx=0;exitDy=0;fontSize=24;strokeWidth=3;" edge="1" parent="1" source="4vSwxPefx8NxM63G5225-2" target="4vSwxPefx8NxM63G5225-16">
          <mxGeometry relative="1" as="geometry" />
        </mxCell>
        <mxCell id="4vSwxPefx8NxM63G5225-29" value="&lt;div&gt;Forward&lt;/div&gt;&lt;div&gt;Confirmation&lt;/div&gt;" style="edgeLabel;html=1;align=center;verticalAlign=middle;resizable=0;points=[];fontSize=16;" vertex="1" connectable="0" parent="4vSwxPefx8NxM63G5225-21">
          <mxGeometry x="0.1307" y="1" relative="1" as="geometry">
            <mxPoint as="offset" />
          </mxGeometry>
        </mxCell>
        <mxCell id="4vSwxPefx8NxM63G5225-2" value="&lt;div&gt;1. Set Environmet&lt;br&gt;&lt;/div&gt;" style="ellipse;whiteSpace=wrap;html=1;aspect=fixed;fontSize=24;strokeWidth=3;" vertex="1" parent="1">
          <mxGeometry x="40" y="520" width="150" height="150" as="geometry" />
        </mxCell>
        <mxCell id="4vSwxPefx8NxM63G5225-22" value="&lt;div style=&quot;font-size: 16px;&quot;&gt;Forward&lt;/div&gt;&lt;div style=&quot;font-size: 16px;&quot;&gt;Confirmation&lt;br style=&quot;font-size: 16px;&quot;&gt;&lt;/div&gt;" style="edgeStyle=orthogonalEdgeStyle;rounded=0;orthogonalLoop=1;jettySize=auto;html=1;exitX=1;exitY=0.5;exitDx=0;exitDy=0;entryX=0.5;entryY=0;entryDx=0;entryDy=0;fontSize=16;strokeWidth=3;" edge="1" parent="1" source="4vSwxPefx8NxM63G5225-16" target="4vSwxPefx8NxM63G5225-17">
          <mxGeometry x="-0.2766" relative="1" as="geometry">
            <mxPoint x="1" as="offset" />
          </mxGeometry>
        </mxCell>
        <mxCell id="4vSwxPefx8NxM63G5225-26" value="Physics Data" style="edgeStyle=orthogonalEdgeStyle;rounded=0;orthogonalLoop=1;jettySize=auto;html=1;exitX=0.5;exitY=1;exitDx=0;exitDy=0;entryX=1;entryY=0;entryDx=0;entryDy=0;fontSize=16;strokeWidth=3;" edge="1" parent="1" source="4vSwxPefx8NxM63G5225-16" target="4vSwxPefx8NxM63G5225-2">
          <mxGeometry relative="1" as="geometry" />
        </mxCell>
        <mxCell id="4vSwxPefx8NxM63G5225-16" value="&lt;div&gt;2. Set Physics&lt;/div&gt;" style="ellipse;whiteSpace=wrap;html=1;aspect=fixed;fontSize=24;strokeWidth=3;" vertex="1" parent="1">
          <mxGeometry x="275" y="370" width="150" height="150" as="geometry" />
        </mxCell>
        <mxCell id="4vSwxPefx8NxM63G5225-23" style="edgeStyle=orthogonalEdgeStyle;rounded=0;orthogonalLoop=1;jettySize=auto;html=1;exitX=0.5;exitY=1;exitDx=0;exitDy=0;fontSize=24;strokeWidth=3;" edge="1" parent="1" source="4vSwxPefx8NxM63G5225-17" target="4vSwxPefx8NxM63G5225-18">
          <mxGeometry relative="1" as="geometry" />
        </mxCell>
        <mxCell id="4vSwxPefx8NxM63G5225-30" value="&lt;div&gt;Forward&lt;/div&gt;&lt;div&gt;Confirmation&lt;/div&gt;" style="edgeLabel;html=1;align=center;verticalAlign=middle;resizable=0;points=[];fontSize=16;" vertex="1" connectable="0" parent="4vSwxPefx8NxM63G5225-23">
          <mxGeometry x="0.1307" y="1" relative="1" as="geometry">
            <mxPoint x="-17" y="-1" as="offset" />
          </mxGeometry>
        </mxCell>
        <mxCell id="4vSwxPefx8NxM63G5225-25" value="Confirmation" style="edgeStyle=orthogonalEdgeStyle;rounded=0;orthogonalLoop=1;jettySize=auto;html=1;exitX=0;exitY=0.5;exitDx=0;exitDy=0;entryX=1;entryY=0.5;entryDx=0;entryDy=0;fontSize=16;strokeWidth=3;" edge="1" parent="1" source="4vSwxPefx8NxM63G5225-17" target="4vSwxPefx8NxM63G5225-2">
          <mxGeometry relative="1" as="geometry" />
        </mxCell>
        <mxCell id="4vSwxPefx8NxM63G5225-17" value="&lt;div&gt;3. Set Character&lt;/div&gt;&lt;div&gt;Mechanics&lt;br&gt;&lt;/div&gt;" style="ellipse;whiteSpace=wrap;html=1;aspect=fixed;fontSize=24;strokeWidth=3;" vertex="1" parent="1">
          <mxGeometry x="510" y="520" width="150" height="150" as="geometry" />
        </mxCell>
        <mxCell id="4vSwxPefx8NxM63G5225-24" value="&lt;div style=&quot;font-size: 16px;&quot;&gt;Send&lt;/div&gt;&lt;div style=&quot;font-size: 16px;&quot;&gt;Confirmation&lt;/div&gt;" style="edgeStyle=orthogonalEdgeStyle;rounded=0;orthogonalLoop=1;jettySize=auto;html=1;exitX=0;exitY=0.5;exitDx=0;exitDy=0;entryX=0.5;entryY=1;entryDx=0;entryDy=0;fontSize=16;strokeWidth=3;" edge="1" parent="1" source="4vSwxPefx8NxM63G5225-18" target="4vSwxPefx8NxM63G5225-2">
          <mxGeometry x="-0.2766" relative="1" as="geometry">
            <mxPoint x="-1" as="offset" />
          </mxGeometry>
        </mxCell>
        <mxCell id="4vSwxPefx8NxM63G5225-27" style="edgeStyle=orthogonalEdgeStyle;rounded=0;orthogonalLoop=1;jettySize=auto;html=1;exitX=0.5;exitY=0;exitDx=0;exitDy=0;entryX=1;entryY=1;entryDx=0;entryDy=0;fontSize=24;strokeWidth=3;" edge="1" parent="1" source="4vSwxPefx8NxM63G5225-18" target="4vSwxPefx8NxM63G5225-2">
          <mxGeometry relative="1" as="geometry" />
        </mxCell>
        <mxCell id="4vSwxPefx8NxM63G5225-31" value="&lt;div&gt;Quest&lt;/div&gt;&lt;div&gt;Location&lt;/div&gt;" style="edgeLabel;html=1;align=center;verticalAlign=middle;resizable=0;points=[];fontSize=16;" vertex="1" connectable="0" parent="4vSwxPefx8NxM63G5225-27">
          <mxGeometry x="0.2523" relative="1" as="geometry">
            <mxPoint x="-1" as="offset" />
          </mxGeometry>
        </mxCell>
        <mxCell id="4vSwxPefx8NxM63G5225-18" value="&lt;div&gt;4. Set&lt;/div&gt;&lt;div&gt;Quests&lt;br&gt;&lt;/div&gt;" style="ellipse;whiteSpace=wrap;html=1;aspect=fixed;fontSize=24;strokeWidth=3;" vertex="1" parent="1">
          <mxGeometry x="275" y="670" width="150" height="150" as="geometry" />
        </mxCell>
        <mxCell id="4vSwxPefx8NxM63G5225-28" value="inputs" style="edgeStyle=orthogonalEdgeStyle;rounded=0;orthogonalLoop=1;jettySize=auto;html=1;exitX=0;exitY=0.5;exitDx=0;exitDy=0;entryX=1;entryY=0.5;entryDx=0;entryDy=0;fontSize=16;strokeWidth=3;" edge="1" parent="1" source="4vSwxPefx8NxM63G5225-20" target="4vSwxPefx8NxM63G5225-17">
          <mxGeometry relative="1" as="geometry" />
        </mxCell>
        <mxCell id="4vSwxPefx8NxM63G5225-32" style="edgeStyle=orthogonalEdgeStyle;rounded=0;orthogonalLoop=1;jettySize=auto;html=1;exitX=0.5;exitY=1;exitDx=0;exitDy=0;entryX=0;entryY=0.5;entryDx=0;entryDy=0;fontSize=16;strokeWidth=3;" edge="1" parent="1" source="4vSwxPefx8NxM63G5225-20" target="4vSwxPefx8NxM63G5225-2">
          <mxGeometry relative="1" as="geometry">
            <Array as="points">
              <mxPoint x="810" y="850" />
              <mxPoint x="-10" y="850" />
              <mxPoint x="-10" y="595" />
            </Array>
          </mxGeometry>
        </mxCell>
        <mxCell id="4vSwxPefx8NxM63G5225-33" value="Interacts" style="edgeLabel;html=1;align=center;verticalAlign=middle;resizable=0;points=[];fontSize=16;" vertex="1" connectable="0" parent="4vSwxPefx8NxM63G5225-32">
          <mxGeometry x="-0.1164" y="-3" relative="1" as="geometry">
            <mxPoint x="1" as="offset" />
          </mxGeometry>
        </mxCell>
        <mxCell id="4vSwxPefx8NxM63G5225-20" value="&lt;font style=&quot;font-size: 24px&quot;&gt;Player&lt;/font&gt;" style="rounded=1;whiteSpace=wrap;html=1;strokeWidth=3;" vertex="1" parent="1">
          <mxGeometry x="750" y="565" width="120" height="60" as="geometry" />
        </mxCell>
      </root>
    </mxGraphModel>
  </diagram>
</mxfile>
